<svg width="102" height="102" viewBox="0 0 102 102" fill="none" xmlns="http://www.w3.org/2000/svg">
<rect x="0.5" y="0.5" width="87.6667" height="85.8958" fill="#FFE503" stroke="black"/>
<rect x="13.3571" y="15.6042" width="88.1429" height="85.8958" fill="#0085FF" stroke="black"/>
<ellipse cx="40.0476" cy="58.2916" rx="13.3333" ry="14.5833" fill="#D9D9D9"/>
<path d="M52.881 58.2916C52.881 66.1127 47.0941 72.3749 40.0476 72.3749C33.0012 72.3749 27.2143 66.1127 27.2143 58.2916C27.2143 50.4705 33.0012 44.2083 40.0476 44.2083C47.0941 44.2083 52.881 50.4705 52.881 58.2916Z" fill="#FFE503" stroke="black"/>
<path d="M57.1904 73.3749C64.8716 73.3749 71.0238 66.5788 71.0238 58.2916C71.0238 50.0044 64.8716 43.2083 57.1904 43.2083C49.5093 43.2083 43.3571 50.0044 43.3571 58.2916C43.3571 66.5788 49.5093 73.3749 57.1904 73.3749Z" fill="#0085FF" stroke="black"/>
<path d="M74.3333 73.3749C82.0145 73.3749 88.1667 66.5788 88.1667 58.2916C88.1667 50.0044 82.0145 43.2083 74.3333 43.2083C66.6522 43.2083 60.5 50.0044 60.5 58.2916C60.5 66.5788 66.6522 73.3749 74.3333 73.3749Z" fill="#FFE503" stroke="black"/>
</svg>
